<?xml version="1.0" encoding="utf-8"?>
<!-- Generator: Adobe Illustrator 25.2.1, SVG Export Plug-In . SVG Version: 6.00 Build 0)  -->
<svg version="1.1" id="Layer_1" xmlns="http://www.w3.org/2000/svg" xmlns:xlink="http://www.w3.org/1999/xlink" x="0px" y="0px"
	 viewBox="0 0 500 500" style="enable-background:new 0 0 500 500;" xml:space="preserve">
<style type="text/css">
	.st0{fill:#478ED7;}
	.st1{fill:#A9CECC;}
	.st2{fill:#F8E064;}
	.st3{fill:#00A3D6;}
</style>
<circle class="st0" cx="250" cy="250" r="250"/>
<g>
	<g>
		<path class="st1" d="M180.4,285.42c-47.94,0-58-26.97-58-49.6c0-12.29,1.6-22.07,4.85-29.6H125c-8.27,0-13.2-5.31-13.2-14.2v-11.8
			c0-9.14,5.08-14.6,13.6-14.6h11.72c-2.54-2.41-3.92-6.02-3.92-10.6v-10.8c0-8.52,5.08-13.6,13.6-13.6h64.49
			c0.28-0.01,0.55-0.02,0.82-0.02c8.07,0,12.89,5.09,12.89,13.62v11.2c0,4.39-1.23,7.86-3.48,10.2h11.88c9.39,0,15,5.38,15,14.4
			v13.59l-0.01,0.19c-0.6,7.77-5.53,12.42-13.19,12.42h-2.02c3.1,7.47,4.62,17.25,4.62,29.6
			C237.8,258.44,227.84,285.42,180.4,285.42z M180,205.02c-6.89,0-14.8,2.61-14.8,23c0,19.5,8.02,22,15,22c7.08,0,15.2-2.5,15.2-22
			C195.4,207.63,187.17,205.02,180,205.02z"/>
		<path class="st2" d="M180.4,280.42c-35.33,0-53-14.87-53-44.6c0-16,2.87-27.53,8.6-34.6h-11c-5.47,0-8.2-3.07-8.2-9.2v-11.8
			c0-6.4,2.87-9.6,8.6-9.6h108c6.67,0,10,3.13,10,9.4v13.4c-0.4,5.2-3.13,7.8-8.2,7.8h-10.6c5.47,6.93,8.2,18.47,8.2,34.6
			C232.8,265.55,215.33,280.42,180.4,280.42z M146.8,164.02c-5.73,0-8.6-3-8.6-9v-10.8c0-5.73,2.87-8.6,8.6-8.6h64.6
			c5.73-0.27,8.6,2.6,8.6,8.6v11.2c0,5.73-2.47,8.6-7.4,8.6H146.8z M180,200.02c-13.2,0-19.8,9.33-19.8,28c0,18,6.67,27,20,27
			c13.47,0,20.2-9,20.2-27C200.4,209.35,193.6,200.02,180,200.02z"/>
	</g>
	<g>
		<path class="st1" d="M276.6,282.82c-8.55,0-11.6-5.37-11.6-10.4v-128.2c0-8.27,5.08-13.2,13.6-13.2h14c8.89,0,14.2,4.93,14.2,13.2
			v18.4h39.8v-19c0-7.89,5.08-12.6,13.6-12.6h14.2c8.64,0,13.8,4.86,13.8,13v111.6c0,7.97-4.07,13.32-11.45,15.06
			C342.93,278.73,309.24,282.82,276.6,282.82z M306.8,241.3c12.05-0.44,25.4-2.04,39.8-4.8v-34.69h-39.8V241.3z"/>
		<path class="st2" d="M383.2,255.62c0,5.6-2.53,9-7.6,10.2c-33.6,8-66.6,12-99,12c-4.4,0-6.6-1.8-6.6-5.4v-128.2
			c0-5.47,2.87-8.2,8.6-8.2h14c6.13,0,9.2,2.73,9.2,8.2v23.4h49.8v-24c0-5.07,2.87-7.6,8.6-7.6h14.2c5.87,0,8.8,2.67,8.8,8V255.62z
			 M301.8,246.42c14.8-0.13,31.4-2.07,49.8-5.8v-43.8h-49.8V246.42z"/>
	</g>
</g>
<circle class="st0" cx="38.62" cy="-43.7" r="28.89"/>
<circle class="st3" cx="103.97" cy="-43.7" r="29.58"/>
<circle class="st2" cx="174.82" cy="-43.7" r="29.58"/>
<circle class="st1" cx="247.4" cy="-43.7" r="29.58"/>
<g>
	<path class="st1" d="M386.16,355.06c-70.98,81.91-201.33,81.91-272.32,0c-16.18-18.59-15.42-43.1-3-48.61c0,0,0,0,0,0
		c12.45-5.63,29.12,3.34,40.27,15.9c51.55,59.49,146.22,59.49,197.78,0c11.16-12.55,27.83-21.53,40.27-15.9l0,0
		C401.58,311.96,402.34,336.47,386.16,355.06z"/>
	<path class="st2" d="M250,410.49c-50.96,0-98.93-21.63-131.62-59.36c-10.14-11.65-11.85-24.26-10.24-31.52
		c0.5-2.24,1.83-6.21,5.14-7.68c1.78-0.8,3.73-1.2,5.85-1.2c8.29,0,19.08,6.12,27.51,15.6c25.66,29.61,63.36,46.63,103.37,46.63
		c40.01,0,77.71-17.02,103.42-46.68c8.37-9.42,19.17-15.55,27.46-15.55c2.12,0,4.07,0.4,5.81,1.18c3.35,1.49,4.68,5.46,5.18,7.7
		c1.61,7.26-0.1,19.86-10.24,31.51C348.93,388.85,300.96,410.49,250,410.49z"/>
</g>
</svg>
